<?xml version="1.0" encoding="utf-8"?>
<svg xmlns="http://www.w3.org/2000/svg" xmlns:xlink="http://www.w3.org/1999/xlink" width="600" height="400" viewBox="0 0 2400 1600">
<defs>
  <clipPath id="clip830">
    <rect x="0" y="0" width="2400" height="1600"/>
  </clipPath>
</defs>
<path clip-path="url(#clip830)" d="M0 1600 L2400 1600 L2400 0 L0 0  Z" fill="#ffffff" fill-rule="evenodd" fill-opacity="1"/>
<defs>
  <clipPath id="clip831">
    <rect x="480" y="0" width="1681" height="1600"/>
  </clipPath>
</defs>
<path clip-path="url(#clip830)" d="M210.746 1423.18 L2352.76 1423.18 L2352.76 47.2441 L210.746 47.2441  Z" fill="#ffffff" fill-rule="evenodd" fill-opacity="1"/>
<defs>
  <clipPath id="clip832">
    <rect x="210" y="47" width="2143" height="1377"/>
  </clipPath>
</defs>
<polyline clip-path="url(#clip832)" style="stroke:#000000; stroke-linecap:round; stroke-linejoin:round; stroke-width:2; stroke-opacity:0.1; fill:none" points="271.369,1423.18 271.369,47.2441 "/>
<polyline clip-path="url(#clip832)" style="stroke:#000000; stroke-linecap:round; stroke-linejoin:round; stroke-width:2; stroke-opacity:0.1; fill:none" points="776.56,1423.18 776.56,47.2441 "/>
<polyline clip-path="url(#clip832)" style="stroke:#000000; stroke-linecap:round; stroke-linejoin:round; stroke-width:2; stroke-opacity:0.1; fill:none" points="1281.75,1423.18 1281.75,47.2441 "/>
<polyline clip-path="url(#clip832)" style="stroke:#000000; stroke-linecap:round; stroke-linejoin:round; stroke-width:2; stroke-opacity:0.1; fill:none" points="1786.94,1423.18 1786.94,47.2441 "/>
<polyline clip-path="url(#clip832)" style="stroke:#000000; stroke-linecap:round; stroke-linejoin:round; stroke-width:2; stroke-opacity:0.1; fill:none" points="2292.13,1423.18 2292.13,47.2441 "/>
<polyline clip-path="url(#clip832)" style="stroke:#000000; stroke-linecap:round; stroke-linejoin:round; stroke-width:2; stroke-opacity:0.1; fill:none" points="210.746,1403.96 2352.76,1403.96 "/>
<polyline clip-path="url(#clip832)" style="stroke:#000000; stroke-linecap:round; stroke-linejoin:round; stroke-width:2; stroke-opacity:0.1; fill:none" points="210.746,962.084 2352.76,962.084 "/>
<polyline clip-path="url(#clip832)" style="stroke:#000000; stroke-linecap:round; stroke-linejoin:round; stroke-width:2; stroke-opacity:0.1; fill:none" points="210.746,520.211 2352.76,520.211 "/>
<polyline clip-path="url(#clip832)" style="stroke:#000000; stroke-linecap:round; stroke-linejoin:round; stroke-width:2; stroke-opacity:0.1; fill:none" points="210.746,78.3372 2352.76,78.3372 "/>
<polyline clip-path="url(#clip830)" style="stroke:#000000; stroke-linecap:round; stroke-linejoin:round; stroke-width:4; stroke-opacity:1; fill:none" points="210.746,1423.18 2352.76,1423.18 "/>
<polyline clip-path="url(#clip830)" style="stroke:#000000; stroke-linecap:round; stroke-linejoin:round; stroke-width:4; stroke-opacity:1; fill:none" points="271.369,1423.18 271.369,1404.28 "/>
<polyline clip-path="url(#clip830)" style="stroke:#000000; stroke-linecap:round; stroke-linejoin:round; stroke-width:4; stroke-opacity:1; fill:none" points="776.56,1423.18 776.56,1404.28 "/>
<polyline clip-path="url(#clip830)" style="stroke:#000000; stroke-linecap:round; stroke-linejoin:round; stroke-width:4; stroke-opacity:1; fill:none" points="1281.75,1423.18 1281.75,1404.28 "/>
<polyline clip-path="url(#clip830)" style="stroke:#000000; stroke-linecap:round; stroke-linejoin:round; stroke-width:4; stroke-opacity:1; fill:none" points="1786.94,1423.18 1786.94,1404.28 "/>
<polyline clip-path="url(#clip830)" style="stroke:#000000; stroke-linecap:round; stroke-linejoin:round; stroke-width:4; stroke-opacity:1; fill:none" points="2292.13,1423.18 2292.13,1404.28 "/>
<path clip-path="url(#clip830)" d="M233.672 1454.1 Q230.061 1454.1 228.233 1457.66 Q226.427 1461.2 226.427 1468.33 Q226.427 1475.44 228.233 1479.01 Q230.061 1482.55 233.672 1482.55 Q237.307 1482.55 239.112 1479.01 Q240.941 1475.44 240.941 1468.33 Q240.941 1461.2 239.112 1457.66 Q237.307 1454.1 233.672 1454.1 M233.672 1450.39 Q239.482 1450.39 242.538 1455 Q245.617 1459.58 245.617 1468.33 Q245.617 1477.06 242.538 1481.67 Q239.482 1486.25 233.672 1486.25 Q227.862 1486.25 224.783 1481.67 Q221.728 1477.06 221.728 1468.33 Q221.728 1459.58 224.783 1455 Q227.862 1450.39 233.672 1450.39 Z" fill="#000000" fill-rule="nonzero" fill-opacity="1" /><path clip-path="url(#clip830)" d="M253.834 1479.7 L258.718 1479.7 L258.718 1485.58 L253.834 1485.58 L253.834 1479.7 Z" fill="#000000" fill-rule="nonzero" fill-opacity="1" /><path clip-path="url(#clip830)" d="M278.904 1454.1 Q275.292 1454.1 273.464 1457.66 Q271.658 1461.2 271.658 1468.33 Q271.658 1475.44 273.464 1479.01 Q275.292 1482.55 278.904 1482.55 Q282.538 1482.55 284.343 1479.01 Q286.172 1475.44 286.172 1468.33 Q286.172 1461.2 284.343 1457.66 Q282.538 1454.1 278.904 1454.1 M278.904 1450.39 Q284.714 1450.39 287.769 1455 Q290.848 1459.58 290.848 1468.33 Q290.848 1477.06 287.769 1481.67 Q284.714 1486.25 278.904 1486.25 Q273.093 1486.25 270.015 1481.67 Q266.959 1477.06 266.959 1468.33 Q266.959 1459.58 270.015 1455 Q273.093 1450.39 278.904 1450.39 Z" fill="#000000" fill-rule="nonzero" fill-opacity="1" /><path clip-path="url(#clip830)" d="M309.065 1454.1 Q305.454 1454.1 303.626 1457.66 Q301.82 1461.2 301.82 1468.33 Q301.82 1475.44 303.626 1479.01 Q305.454 1482.55 309.065 1482.55 Q312.7 1482.55 314.505 1479.01 Q316.334 1475.44 316.334 1468.33 Q316.334 1461.2 314.505 1457.66 Q312.7 1454.1 309.065 1454.1 M309.065 1450.39 Q314.876 1450.39 317.931 1455 Q321.01 1459.58 321.01 1468.33 Q321.01 1477.06 317.931 1481.67 Q314.876 1486.25 309.065 1486.25 Q303.255 1486.25 300.177 1481.67 Q297.121 1477.06 297.121 1468.33 Q297.121 1459.58 300.177 1455 Q303.255 1450.39 309.065 1450.39 Z" fill="#000000" fill-rule="nonzero" fill-opacity="1" /><path clip-path="url(#clip830)" d="M739.361 1454.1 Q735.75 1454.1 733.921 1457.66 Q732.116 1461.2 732.116 1468.33 Q732.116 1475.44 733.921 1479.01 Q735.75 1482.55 739.361 1482.55 Q742.995 1482.55 744.801 1479.01 Q746.63 1475.44 746.63 1468.33 Q746.63 1461.2 744.801 1457.66 Q742.995 1454.1 739.361 1454.1 M739.361 1450.39 Q745.171 1450.39 748.227 1455 Q751.305 1459.58 751.305 1468.33 Q751.305 1477.06 748.227 1481.67 Q745.171 1486.25 739.361 1486.25 Q733.551 1486.25 730.472 1481.67 Q727.417 1477.06 727.417 1468.33 Q727.417 1459.58 730.472 1455 Q733.551 1450.39 739.361 1450.39 Z" fill="#000000" fill-rule="nonzero" fill-opacity="1" /><path clip-path="url(#clip830)" d="M759.523 1479.7 L764.407 1479.7 L764.407 1485.58 L759.523 1485.58 L759.523 1479.7 Z" fill="#000000" fill-rule="nonzero" fill-opacity="1" /><path clip-path="url(#clip830)" d="M778.62 1481.64 L794.939 1481.64 L794.939 1485.58 L772.995 1485.58 L772.995 1481.64 Q775.657 1478.89 780.24 1474.26 Q784.847 1469.61 786.027 1468.27 Q788.273 1465.74 789.152 1464.01 Q790.055 1462.25 790.055 1460.56 Q790.055 1457.8 788.111 1456.07 Q786.189 1454.33 783.088 1454.33 Q780.889 1454.33 778.435 1455.09 Q776.004 1455.86 773.227 1457.41 L773.227 1452.69 Q776.051 1451.55 778.504 1450.97 Q780.958 1450.39 782.995 1450.39 Q788.365 1450.39 791.56 1453.08 Q794.754 1455.77 794.754 1460.26 Q794.754 1462.39 793.944 1464.31 Q793.157 1466.2 791.051 1468.8 Q790.472 1469.47 787.37 1472.69 Q784.268 1475.88 778.62 1481.64 Z" fill="#000000" fill-rule="nonzero" fill-opacity="1" /><path clip-path="url(#clip830)" d="M804.8 1451.02 L823.157 1451.02 L823.157 1454.96 L809.083 1454.96 L809.083 1463.43 Q810.101 1463.08 811.12 1462.92 Q812.138 1462.73 813.157 1462.73 Q818.944 1462.73 822.324 1465.9 Q825.703 1469.08 825.703 1474.49 Q825.703 1480.07 822.231 1483.17 Q818.759 1486.25 812.439 1486.25 Q810.263 1486.25 807.995 1485.88 Q805.75 1485.51 803.342 1484.77 L803.342 1480.07 Q805.425 1481.2 807.648 1481.76 Q809.87 1482.32 812.347 1482.32 Q816.351 1482.32 818.689 1480.21 Q821.027 1478.1 821.027 1474.49 Q821.027 1470.88 818.689 1468.77 Q816.351 1466.67 812.347 1466.67 Q810.472 1466.67 808.597 1467.08 Q806.745 1467.5 804.8 1468.38 L804.8 1451.02 Z" fill="#000000" fill-rule="nonzero" fill-opacity="1" /><path clip-path="url(#clip830)" d="M1244.05 1454.1 Q1240.44 1454.1 1238.61 1457.66 Q1236.81 1461.2 1236.81 1468.33 Q1236.81 1475.44 1238.61 1479.01 Q1240.44 1482.55 1244.05 1482.55 Q1247.69 1482.55 1249.49 1479.01 Q1251.32 1475.44 1251.32 1468.33 Q1251.32 1461.2 1249.49 1457.66 Q1247.69 1454.1 1244.05 1454.1 M1244.05 1450.39 Q1249.86 1450.39 1252.92 1455 Q1256 1459.58 1256 1468.33 Q1256 1477.06 1252.92 1481.67 Q1249.86 1486.25 1244.05 1486.25 Q1238.24 1486.25 1235.17 1481.67 Q1232.11 1477.06 1232.11 1468.33 Q1232.11 1459.58 1235.17 1455 Q1238.24 1450.39 1244.05 1450.39 Z" fill="#000000" fill-rule="nonzero" fill-opacity="1" /><path clip-path="url(#clip830)" d="M1264.22 1479.7 L1269.1 1479.7 L1269.1 1485.58 L1264.22 1485.58 L1264.22 1479.7 Z" fill="#000000" fill-rule="nonzero" fill-opacity="1" /><path clip-path="url(#clip830)" d="M1279.33 1451.02 L1297.69 1451.02 L1297.69 1454.96 L1283.61 1454.96 L1283.61 1463.43 Q1284.63 1463.08 1285.65 1462.92 Q1286.67 1462.73 1287.69 1462.73 Q1293.48 1462.73 1296.86 1465.9 Q1300.23 1469.08 1300.23 1474.49 Q1300.23 1480.07 1296.76 1483.17 Q1293.29 1486.25 1286.97 1486.25 Q1284.79 1486.25 1282.53 1485.88 Q1280.28 1485.51 1277.87 1484.77 L1277.87 1480.07 Q1279.96 1481.2 1282.18 1481.76 Q1284.4 1482.32 1286.88 1482.32 Q1290.88 1482.32 1293.22 1480.21 Q1295.56 1478.1 1295.56 1474.49 Q1295.56 1470.88 1293.22 1468.77 Q1290.88 1466.67 1286.88 1466.67 Q1285 1466.67 1283.13 1467.08 Q1281.28 1467.5 1279.33 1468.38 L1279.33 1451.02 Z" fill="#000000" fill-rule="nonzero" fill-opacity="1" /><path clip-path="url(#clip830)" d="M1319.45 1454.1 Q1315.84 1454.1 1314.01 1457.66 Q1312.2 1461.2 1312.2 1468.33 Q1312.2 1475.44 1314.01 1479.01 Q1315.84 1482.55 1319.45 1482.55 Q1323.08 1482.55 1324.89 1479.01 Q1326.72 1475.44 1326.72 1468.33 Q1326.72 1461.2 1324.89 1457.66 Q1323.08 1454.1 1319.45 1454.1 M1319.45 1450.39 Q1325.26 1450.39 1328.31 1455 Q1331.39 1459.58 1331.39 1468.33 Q1331.39 1477.06 1328.31 1481.67 Q1325.26 1486.25 1319.45 1486.25 Q1313.64 1486.25 1310.56 1481.67 Q1307.5 1477.06 1307.5 1468.33 Q1307.5 1459.58 1310.56 1455 Q1313.64 1450.39 1319.45 1450.39 Z" fill="#000000" fill-rule="nonzero" fill-opacity="1" /><path clip-path="url(#clip830)" d="M1749.74 1454.1 Q1746.13 1454.1 1744.3 1457.66 Q1742.5 1461.2 1742.5 1468.33 Q1742.5 1475.44 1744.3 1479.01 Q1746.13 1482.55 1749.74 1482.55 Q1753.38 1482.55 1755.18 1479.01 Q1757.01 1475.44 1757.01 1468.33 Q1757.01 1461.2 1755.18 1457.66 Q1753.38 1454.1 1749.74 1454.1 M1749.74 1450.39 Q1755.55 1450.39 1758.61 1455 Q1761.69 1459.58 1761.69 1468.33 Q1761.69 1477.06 1758.61 1481.67 Q1755.55 1486.25 1749.74 1486.25 Q1743.93 1486.25 1740.85 1481.67 Q1737.8 1477.06 1737.8 1468.33 Q1737.8 1459.58 1740.85 1455 Q1743.93 1450.39 1749.74 1450.39 Z" fill="#000000" fill-rule="nonzero" fill-opacity="1" /><path clip-path="url(#clip830)" d="M1769.91 1479.7 L1774.79 1479.7 L1774.79 1485.58 L1769.91 1485.58 L1769.91 1479.7 Z" fill="#000000" fill-rule="nonzero" fill-opacity="1" /><path clip-path="url(#clip830)" d="M1783.79 1451.02 L1806.02 1451.02 L1806.02 1453.01 L1793.47 1485.58 L1788.59 1485.58 L1800.39 1454.96 L1783.79 1454.96 L1783.79 1451.02 Z" fill="#000000" fill-rule="nonzero" fill-opacity="1" /><path clip-path="url(#clip830)" d="M1815.18 1451.02 L1833.54 1451.02 L1833.54 1454.96 L1819.46 1454.96 L1819.46 1463.43 Q1820.48 1463.08 1821.5 1462.92 Q1822.52 1462.73 1823.54 1462.73 Q1829.33 1462.73 1832.71 1465.9 Q1836.09 1469.08 1836.09 1474.49 Q1836.09 1480.07 1832.61 1483.17 Q1829.14 1486.25 1822.82 1486.25 Q1820.65 1486.25 1818.38 1485.88 Q1816.13 1485.51 1813.72 1484.77 L1813.72 1480.07 Q1815.81 1481.2 1818.03 1481.76 Q1820.25 1482.32 1822.73 1482.32 Q1826.73 1482.32 1829.07 1480.21 Q1831.41 1478.1 1831.41 1474.49 Q1831.41 1470.88 1829.07 1468.77 Q1826.73 1466.67 1822.73 1466.67 Q1820.85 1466.67 1818.98 1467.08 Q1817.13 1467.5 1815.18 1468.38 L1815.18 1451.02 Z" fill="#000000" fill-rule="nonzero" fill-opacity="1" /><path clip-path="url(#clip830)" d="M2244.2 1481.64 L2251.84 1481.64 L2251.84 1455.28 L2243.53 1456.95 L2243.53 1452.69 L2251.8 1451.02 L2256.47 1451.02 L2256.47 1481.64 L2264.11 1481.64 L2264.11 1485.58 L2244.2 1485.58 L2244.2 1481.64 Z" fill="#000000" fill-rule="nonzero" fill-opacity="1" /><path clip-path="url(#clip830)" d="M2273.56 1479.7 L2278.44 1479.7 L2278.44 1485.58 L2273.56 1485.58 L2273.56 1479.7 Z" fill="#000000" fill-rule="nonzero" fill-opacity="1" /><path clip-path="url(#clip830)" d="M2298.63 1454.1 Q2295.01 1454.1 2293.19 1457.66 Q2291.38 1461.2 2291.38 1468.33 Q2291.38 1475.44 2293.19 1479.01 Q2295.01 1482.55 2298.63 1482.55 Q2302.26 1482.55 2304.07 1479.01 Q2305.89 1475.44 2305.89 1468.33 Q2305.89 1461.2 2304.07 1457.66 Q2302.26 1454.1 2298.63 1454.1 M2298.63 1450.39 Q2304.44 1450.39 2307.49 1455 Q2310.57 1459.58 2310.57 1468.33 Q2310.57 1477.06 2307.49 1481.67 Q2304.44 1486.25 2298.63 1486.25 Q2292.82 1486.25 2289.74 1481.67 Q2286.68 1477.06 2286.68 1468.33 Q2286.68 1459.58 2289.74 1455 Q2292.82 1450.39 2298.63 1450.39 Z" fill="#000000" fill-rule="nonzero" fill-opacity="1" /><path clip-path="url(#clip830)" d="M2328.79 1454.1 Q2325.18 1454.1 2323.35 1457.66 Q2321.54 1461.2 2321.54 1468.33 Q2321.54 1475.44 2323.35 1479.01 Q2325.18 1482.55 2328.79 1482.55 Q2332.42 1482.55 2334.23 1479.01 Q2336.06 1475.44 2336.06 1468.33 Q2336.06 1461.2 2334.23 1457.66 Q2332.42 1454.1 2328.79 1454.1 M2328.79 1450.39 Q2334.6 1450.39 2337.65 1455 Q2340.73 1459.58 2340.73 1468.33 Q2340.73 1477.06 2337.65 1481.67 Q2334.6 1486.25 2328.79 1486.25 Q2322.98 1486.25 2319.9 1481.67 Q2316.84 1477.06 2316.84 1468.33 Q2316.84 1459.58 2319.9 1455 Q2322.98 1450.39 2328.79 1450.39 Z" fill="#000000" fill-rule="nonzero" fill-opacity="1" /><path clip-path="url(#clip830)" d="M1298.37 1532.4 L1285.47 1549.74 L1299.03 1568.04 L1292.13 1568.04 L1281.75 1554.04 L1271.37 1568.04 L1264.47 1568.04 L1278.31 1549.39 L1265.65 1532.4 L1272.55 1532.4 L1282.01 1545.1 L1291.46 1532.4 L1298.37 1532.4 Z" fill="#000000" fill-rule="nonzero" fill-opacity="1" /><polyline clip-path="url(#clip830)" style="stroke:#000000; stroke-linecap:round; stroke-linejoin:round; stroke-width:4; stroke-opacity:1; fill:none" points="210.746,1423.18 210.746,47.2441 "/>
<polyline clip-path="url(#clip830)" style="stroke:#000000; stroke-linecap:round; stroke-linejoin:round; stroke-width:4; stroke-opacity:1; fill:none" points="210.746,1403.96 229.644,1403.96 "/>
<polyline clip-path="url(#clip830)" style="stroke:#000000; stroke-linecap:round; stroke-linejoin:round; stroke-width:4; stroke-opacity:1; fill:none" points="210.746,962.084 229.644,962.084 "/>
<polyline clip-path="url(#clip830)" style="stroke:#000000; stroke-linecap:round; stroke-linejoin:round; stroke-width:4; stroke-opacity:1; fill:none" points="210.746,520.211 229.644,520.211 "/>
<polyline clip-path="url(#clip830)" style="stroke:#000000; stroke-linecap:round; stroke-linejoin:round; stroke-width:4; stroke-opacity:1; fill:none" points="210.746,78.3372 229.644,78.3372 "/>
<path clip-path="url(#clip830)" d="M114.26 1404.41 L143.936 1404.41 L143.936 1408.34 L114.26 1408.34 L114.26 1404.41 Z" fill="#000000" fill-rule="nonzero" fill-opacity="1" /><path clip-path="url(#clip830)" d="M154.839 1417.3 L162.477 1417.3 L162.477 1390.94 L154.167 1392.6 L154.167 1388.34 L162.431 1386.68 L167.107 1386.68 L167.107 1417.3 L174.746 1417.3 L174.746 1421.24 L154.839 1421.24 L154.839 1417.3 Z" fill="#000000" fill-rule="nonzero" fill-opacity="1" /><path clip-path="url(#clip830)" d="M162.802 947.883 Q159.19 947.883 157.362 951.448 Q155.556 954.989 155.556 962.119 Q155.556 969.225 157.362 972.79 Q159.19 976.332 162.802 976.332 Q166.436 976.332 168.241 972.79 Q170.07 969.225 170.07 962.119 Q170.07 954.989 168.241 951.448 Q166.436 947.883 162.802 947.883 M162.802 944.179 Q168.612 944.179 171.667 948.786 Q174.746 953.369 174.746 962.119 Q174.746 970.846 171.667 975.452 Q168.612 980.035 162.802 980.035 Q156.991 980.035 153.913 975.452 Q150.857 970.846 150.857 962.119 Q150.857 953.369 153.913 948.786 Q156.991 944.179 162.802 944.179 Z" fill="#000000" fill-rule="nonzero" fill-opacity="1" /><path clip-path="url(#clip830)" d="M154.839 533.555 L162.477 533.555 L162.477 507.19 L154.167 508.857 L154.167 504.597 L162.431 502.931 L167.107 502.931 L167.107 533.555 L174.746 533.555 L174.746 537.491 L154.839 537.491 L154.839 533.555 Z" fill="#000000" fill-rule="nonzero" fill-opacity="1" /><path clip-path="url(#clip830)" d="M158.427 91.6821 L174.746 91.6821 L174.746 95.6172 L152.802 95.6172 L152.802 91.6821 Q155.464 88.9274 160.047 84.2978 Q164.653 79.6451 165.834 78.3025 Q168.079 75.7794 168.959 74.0433 Q169.862 72.284 169.862 70.5942 Q169.862 67.8396 167.917 66.1035 Q165.996 64.3674 162.894 64.3674 Q160.695 64.3674 158.241 65.1313 Q155.811 65.8952 153.033 67.4461 L153.033 62.7239 Q155.857 61.5896 158.311 61.0109 Q160.765 60.4322 162.802 60.4322 Q168.172 60.4322 171.366 63.1174 Q174.561 65.8026 174.561 70.2933 Q174.561 72.4229 173.751 74.3442 Q172.964 76.2423 170.857 78.8349 Q170.278 79.5062 167.177 82.7238 Q164.075 85.9182 158.427 91.6821 Z" fill="#000000" fill-rule="nonzero" fill-opacity="1" /><path clip-path="url(#clip830)" d="M67.3143 733.525 Q73.68 736.008 75.6216 738.363 Q77.5631 740.718 77.5631 744.665 L77.5631 749.344 L72.6615 749.344 L72.6615 745.906 Q72.6615 743.487 71.5157 742.151 Q70.3699 740.814 66.1048 739.191 L63.4312 738.14 L28.3562 752.559 L28.3562 746.352 L56.238 735.212 L28.3562 724.072 L28.3562 717.865 L67.3143 733.525 Z" fill="#000000" fill-rule="nonzero" fill-opacity="1" /><circle clip-path="url(#clip832)" cx="271.369" cy="862.19" r="7.2" fill="#009af9" fill-rule="evenodd" fill-opacity="1" stroke="none"/>
<circle clip-path="url(#clip832)" cx="291.577" cy="949.537" r="7.2" fill="#009af9" fill-rule="evenodd" fill-opacity="1" stroke="none"/>
<circle clip-path="url(#clip832)" cx="311.784" cy="805.336" r="7.2" fill="#009af9" fill-rule="evenodd" fill-opacity="1" stroke="none"/>
<circle clip-path="url(#clip832)" cx="331.992" cy="750.924" r="7.2" fill="#009af9" fill-rule="evenodd" fill-opacity="1" stroke="none"/>
<circle clip-path="url(#clip832)" cx="352.199" cy="680.493" r="7.2" fill="#009af9" fill-rule="evenodd" fill-opacity="1" stroke="none"/>
<circle clip-path="url(#clip832)" cx="372.407" cy="810.962" r="7.2" fill="#009af9" fill-rule="evenodd" fill-opacity="1" stroke="none"/>
<circle clip-path="url(#clip832)" cx="392.615" cy="673.815" r="7.2" fill="#009af9" fill-rule="evenodd" fill-opacity="1" stroke="none"/>
<circle clip-path="url(#clip832)" cx="412.822" cy="699.108" r="7.2" fill="#009af9" fill-rule="evenodd" fill-opacity="1" stroke="none"/>
<circle clip-path="url(#clip832)" cx="433.03" cy="452.113" r="7.2" fill="#009af9" fill-rule="evenodd" fill-opacity="1" stroke="none"/>
<circle clip-path="url(#clip832)" cx="453.238" cy="549.436" r="7.2" fill="#009af9" fill-rule="evenodd" fill-opacity="1" stroke="none"/>
<circle clip-path="url(#clip832)" cx="473.445" cy="599.467" r="7.2" fill="#009af9" fill-rule="evenodd" fill-opacity="1" stroke="none"/>
<circle clip-path="url(#clip832)" cx="493.653" cy="716.003" r="7.2" fill="#009af9" fill-rule="evenodd" fill-opacity="1" stroke="none"/>
<circle clip-path="url(#clip832)" cx="513.861" cy="469.439" r="7.2" fill="#009af9" fill-rule="evenodd" fill-opacity="1" stroke="none"/>
<circle clip-path="url(#clip832)" cx="534.068" cy="444.525" r="7.2" fill="#009af9" fill-rule="evenodd" fill-opacity="1" stroke="none"/>
<circle clip-path="url(#clip832)" cx="554.276" cy="435.362" r="7.2" fill="#009af9" fill-rule="evenodd" fill-opacity="1" stroke="none"/>
<circle clip-path="url(#clip832)" cx="574.483" cy="554.456" r="7.2" fill="#009af9" fill-rule="evenodd" fill-opacity="1" stroke="none"/>
<circle clip-path="url(#clip832)" cx="594.691" cy="439.966" r="7.2" fill="#009af9" fill-rule="evenodd" fill-opacity="1" stroke="none"/>
<circle clip-path="url(#clip832)" cx="614.899" cy="454.572" r="7.2" fill="#009af9" fill-rule="evenodd" fill-opacity="1" stroke="none"/>
<circle clip-path="url(#clip832)" cx="635.106" cy="507.39" r="7.2" fill="#009af9" fill-rule="evenodd" fill-opacity="1" stroke="none"/>
<circle clip-path="url(#clip832)" cx="655.314" cy="501.54" r="7.2" fill="#009af9" fill-rule="evenodd" fill-opacity="1" stroke="none"/>
<circle clip-path="url(#clip832)" cx="675.522" cy="578.411" r="7.2" fill="#009af9" fill-rule="evenodd" fill-opacity="1" stroke="none"/>
<circle clip-path="url(#clip832)" cx="695.729" cy="471.929" r="7.2" fill="#009af9" fill-rule="evenodd" fill-opacity="1" stroke="none"/>
<circle clip-path="url(#clip832)" cx="715.937" cy="677.833" r="7.2" fill="#009af9" fill-rule="evenodd" fill-opacity="1" stroke="none"/>
<circle clip-path="url(#clip832)" cx="736.145" cy="451.448" r="7.2" fill="#009af9" fill-rule="evenodd" fill-opacity="1" stroke="none"/>
<circle clip-path="url(#clip832)" cx="756.352" cy="550.036" r="7.2" fill="#009af9" fill-rule="evenodd" fill-opacity="1" stroke="none"/>
<circle clip-path="url(#clip832)" cx="776.56" cy="543.352" r="7.2" fill="#009af9" fill-rule="evenodd" fill-opacity="1" stroke="none"/>
<circle clip-path="url(#clip832)" cx="796.768" cy="656.997" r="7.2" fill="#009af9" fill-rule="evenodd" fill-opacity="1" stroke="none"/>
<circle clip-path="url(#clip832)" cx="816.975" cy="794.361" r="7.2" fill="#009af9" fill-rule="evenodd" fill-opacity="1" stroke="none"/>
<circle clip-path="url(#clip832)" cx="837.183" cy="723.563" r="7.2" fill="#009af9" fill-rule="evenodd" fill-opacity="1" stroke="none"/>
<circle clip-path="url(#clip832)" cx="857.39" cy="712.903" r="7.2" fill="#009af9" fill-rule="evenodd" fill-opacity="1" stroke="none"/>
<circle clip-path="url(#clip832)" cx="877.598" cy="690.399" r="7.2" fill="#009af9" fill-rule="evenodd" fill-opacity="1" stroke="none"/>
<circle clip-path="url(#clip832)" cx="897.806" cy="615.211" r="7.2" fill="#009af9" fill-rule="evenodd" fill-opacity="1" stroke="none"/>
<circle clip-path="url(#clip832)" cx="918.013" cy="876.827" r="7.2" fill="#009af9" fill-rule="evenodd" fill-opacity="1" stroke="none"/>
<circle clip-path="url(#clip832)" cx="938.221" cy="987.887" r="7.2" fill="#009af9" fill-rule="evenodd" fill-opacity="1" stroke="none"/>
<circle clip-path="url(#clip832)" cx="958.429" cy="916.985" r="7.2" fill="#009af9" fill-rule="evenodd" fill-opacity="1" stroke="none"/>
<circle clip-path="url(#clip832)" cx="978.636" cy="843.543" r="7.2" fill="#009af9" fill-rule="evenodd" fill-opacity="1" stroke="none"/>
<circle clip-path="url(#clip832)" cx="998.844" cy="1004.6" r="7.2" fill="#009af9" fill-rule="evenodd" fill-opacity="1" stroke="none"/>
<circle clip-path="url(#clip832)" cx="1019.05" cy="888.949" r="7.2" fill="#009af9" fill-rule="evenodd" fill-opacity="1" stroke="none"/>
<circle clip-path="url(#clip832)" cx="1039.26" cy="824.688" r="7.2" fill="#009af9" fill-rule="evenodd" fill-opacity="1" stroke="none"/>
<circle clip-path="url(#clip832)" cx="1059.47" cy="1313.26" r="7.2" fill="#009af9" fill-rule="evenodd" fill-opacity="1" stroke="none"/>
<circle clip-path="url(#clip832)" cx="1079.67" cy="1133.8" r="7.2" fill="#009af9" fill-rule="evenodd" fill-opacity="1" stroke="none"/>
<circle clip-path="url(#clip832)" cx="1099.88" cy="1322.53" r="7.2" fill="#009af9" fill-rule="evenodd" fill-opacity="1" stroke="none"/>
<circle clip-path="url(#clip832)" cx="1120.09" cy="1067.5" r="7.2" fill="#009af9" fill-rule="evenodd" fill-opacity="1" stroke="none"/>
<circle clip-path="url(#clip832)" cx="1140.3" cy="1181.37" r="7.2" fill="#009af9" fill-rule="evenodd" fill-opacity="1" stroke="none"/>
<circle clip-path="url(#clip832)" cx="1160.51" cy="1221.55" r="7.2" fill="#009af9" fill-rule="evenodd" fill-opacity="1" stroke="none"/>
<circle clip-path="url(#clip832)" cx="1180.71" cy="1187.37" r="7.2" fill="#009af9" fill-rule="evenodd" fill-opacity="1" stroke="none"/>
<circle clip-path="url(#clip832)" cx="1200.92" cy="1384.24" r="7.2" fill="#009af9" fill-rule="evenodd" fill-opacity="1" stroke="none"/>
<circle clip-path="url(#clip832)" cx="1221.13" cy="1263.88" r="7.2" fill="#009af9" fill-rule="evenodd" fill-opacity="1" stroke="none"/>
<circle clip-path="url(#clip832)" cx="1241.34" cy="1339.46" r="7.2" fill="#009af9" fill-rule="evenodd" fill-opacity="1" stroke="none"/>
<circle clip-path="url(#clip832)" cx="1261.54" cy="1111.83" r="7.2" fill="#009af9" fill-rule="evenodd" fill-opacity="1" stroke="none"/>
<circle clip-path="url(#clip832)" cx="1281.75" cy="1200.54" r="7.2" fill="#009af9" fill-rule="evenodd" fill-opacity="1" stroke="none"/>
<circle clip-path="url(#clip832)" cx="1301.96" cy="1220.93" r="7.2" fill="#009af9" fill-rule="evenodd" fill-opacity="1" stroke="none"/>
<circle clip-path="url(#clip832)" cx="1322.17" cy="1101.91" r="7.2" fill="#009af9" fill-rule="evenodd" fill-opacity="1" stroke="none"/>
<circle clip-path="url(#clip832)" cx="1342.37" cy="1000.95" r="7.2" fill="#009af9" fill-rule="evenodd" fill-opacity="1" stroke="none"/>
<circle clip-path="url(#clip832)" cx="1362.58" cy="1305.17" r="7.2" fill="#009af9" fill-rule="evenodd" fill-opacity="1" stroke="none"/>
<circle clip-path="url(#clip832)" cx="1382.79" cy="1040.84" r="7.2" fill="#009af9" fill-rule="evenodd" fill-opacity="1" stroke="none"/>
<circle clip-path="url(#clip832)" cx="1403" cy="1093.21" r="7.2" fill="#009af9" fill-rule="evenodd" fill-opacity="1" stroke="none"/>
<circle clip-path="url(#clip832)" cx="1423.2" cy="984.651" r="7.2" fill="#009af9" fill-rule="evenodd" fill-opacity="1" stroke="none"/>
<circle clip-path="url(#clip832)" cx="1443.41" cy="945.887" r="7.2" fill="#009af9" fill-rule="evenodd" fill-opacity="1" stroke="none"/>
<circle clip-path="url(#clip832)" cx="1463.62" cy="939.724" r="7.2" fill="#009af9" fill-rule="evenodd" fill-opacity="1" stroke="none"/>
<circle clip-path="url(#clip832)" cx="1483.83" cy="840.266" r="7.2" fill="#009af9" fill-rule="evenodd" fill-opacity="1" stroke="none"/>
<circle clip-path="url(#clip832)" cx="1504.03" cy="769.641" r="7.2" fill="#009af9" fill-rule="evenodd" fill-opacity="1" stroke="none"/>
<circle clip-path="url(#clip832)" cx="1524.24" cy="705.017" r="7.2" fill="#009af9" fill-rule="evenodd" fill-opacity="1" stroke="none"/>
<circle clip-path="url(#clip832)" cx="1544.45" cy="744.433" r="7.2" fill="#009af9" fill-rule="evenodd" fill-opacity="1" stroke="none"/>
<circle clip-path="url(#clip832)" cx="1564.66" cy="555.762" r="7.2" fill="#009af9" fill-rule="evenodd" fill-opacity="1" stroke="none"/>
<circle clip-path="url(#clip832)" cx="1584.87" cy="550.124" r="7.2" fill="#009af9" fill-rule="evenodd" fill-opacity="1" stroke="none"/>
<circle clip-path="url(#clip832)" cx="1605.07" cy="481.648" r="7.2" fill="#009af9" fill-rule="evenodd" fill-opacity="1" stroke="none"/>
<circle clip-path="url(#clip832)" cx="1625.28" cy="432.864" r="7.2" fill="#009af9" fill-rule="evenodd" fill-opacity="1" stroke="none"/>
<circle clip-path="url(#clip832)" cx="1645.49" cy="393.762" r="7.2" fill="#009af9" fill-rule="evenodd" fill-opacity="1" stroke="none"/>
<circle clip-path="url(#clip832)" cx="1665.7" cy="406.194" r="7.2" fill="#009af9" fill-rule="evenodd" fill-opacity="1" stroke="none"/>
<circle clip-path="url(#clip832)" cx="1685.9" cy="436.53" r="7.2" fill="#009af9" fill-rule="evenodd" fill-opacity="1" stroke="none"/>
<circle clip-path="url(#clip832)" cx="1706.11" cy="507.494" r="7.2" fill="#009af9" fill-rule="evenodd" fill-opacity="1" stroke="none"/>
<circle clip-path="url(#clip832)" cx="1726.32" cy="346.316" r="7.2" fill="#009af9" fill-rule="evenodd" fill-opacity="1" stroke="none"/>
<circle clip-path="url(#clip832)" cx="1746.53" cy="194.686" r="7.2" fill="#009af9" fill-rule="evenodd" fill-opacity="1" stroke="none"/>
<circle clip-path="url(#clip832)" cx="1766.73" cy="286.536" r="7.2" fill="#009af9" fill-rule="evenodd" fill-opacity="1" stroke="none"/>
<circle clip-path="url(#clip832)" cx="1786.94" cy="293.917" r="7.2" fill="#009af9" fill-rule="evenodd" fill-opacity="1" stroke="none"/>
<circle clip-path="url(#clip832)" cx="1807.15" cy="94.7153" r="7.2" fill="#009af9" fill-rule="evenodd" fill-opacity="1" stroke="none"/>
<circle clip-path="url(#clip832)" cx="1827.36" cy="345.861" r="7.2" fill="#009af9" fill-rule="evenodd" fill-opacity="1" stroke="none"/>
<circle clip-path="url(#clip832)" cx="1847.56" cy="198.42" r="7.2" fill="#009af9" fill-rule="evenodd" fill-opacity="1" stroke="none"/>
<circle clip-path="url(#clip832)" cx="1867.77" cy="86.1857" r="7.2" fill="#009af9" fill-rule="evenodd" fill-opacity="1" stroke="none"/>
<circle clip-path="url(#clip832)" cx="1887.98" cy="137.646" r="7.2" fill="#009af9" fill-rule="evenodd" fill-opacity="1" stroke="none"/>
<circle clip-path="url(#clip832)" cx="1908.19" cy="284.173" r="7.2" fill="#009af9" fill-rule="evenodd" fill-opacity="1" stroke="none"/>
<circle clip-path="url(#clip832)" cx="1928.4" cy="93.7747" r="7.2" fill="#009af9" fill-rule="evenodd" fill-opacity="1" stroke="none"/>
<circle clip-path="url(#clip832)" cx="1948.6" cy="179.517" r="7.2" fill="#009af9" fill-rule="evenodd" fill-opacity="1" stroke="none"/>
<circle clip-path="url(#clip832)" cx="1968.81" cy="294.975" r="7.2" fill="#009af9" fill-rule="evenodd" fill-opacity="1" stroke="none"/>
<circle clip-path="url(#clip832)" cx="1989.02" cy="167.167" r="7.2" fill="#009af9" fill-rule="evenodd" fill-opacity="1" stroke="none"/>
<circle clip-path="url(#clip832)" cx="2009.23" cy="285.751" r="7.2" fill="#009af9" fill-rule="evenodd" fill-opacity="1" stroke="none"/>
<circle clip-path="url(#clip832)" cx="2029.43" cy="343.838" r="7.2" fill="#009af9" fill-rule="evenodd" fill-opacity="1" stroke="none"/>
<circle clip-path="url(#clip832)" cx="2049.64" cy="225.508" r="7.2" fill="#009af9" fill-rule="evenodd" fill-opacity="1" stroke="none"/>
<circle clip-path="url(#clip832)" cx="2069.85" cy="322.73" r="7.2" fill="#009af9" fill-rule="evenodd" fill-opacity="1" stroke="none"/>
<circle clip-path="url(#clip832)" cx="2090.06" cy="403.817" r="7.2" fill="#009af9" fill-rule="evenodd" fill-opacity="1" stroke="none"/>
<circle clip-path="url(#clip832)" cx="2110.26" cy="525.891" r="7.2" fill="#009af9" fill-rule="evenodd" fill-opacity="1" stroke="none"/>
<circle clip-path="url(#clip832)" cx="2130.47" cy="481.754" r="7.2" fill="#009af9" fill-rule="evenodd" fill-opacity="1" stroke="none"/>
<circle clip-path="url(#clip832)" cx="2150.68" cy="574.889" r="7.2" fill="#009af9" fill-rule="evenodd" fill-opacity="1" stroke="none"/>
<circle clip-path="url(#clip832)" cx="2170.89" cy="375.164" r="7.2" fill="#009af9" fill-rule="evenodd" fill-opacity="1" stroke="none"/>
<circle clip-path="url(#clip832)" cx="2191.09" cy="592.763" r="7.2" fill="#009af9" fill-rule="evenodd" fill-opacity="1" stroke="none"/>
<circle clip-path="url(#clip832)" cx="2211.3" cy="435.524" r="7.2" fill="#009af9" fill-rule="evenodd" fill-opacity="1" stroke="none"/>
<circle clip-path="url(#clip832)" cx="2231.51" cy="806.27" r="7.2" fill="#009af9" fill-rule="evenodd" fill-opacity="1" stroke="none"/>
<circle clip-path="url(#clip832)" cx="2251.72" cy="778.752" r="7.2" fill="#009af9" fill-rule="evenodd" fill-opacity="1" stroke="none"/>
<circle clip-path="url(#clip832)" cx="2271.93" cy="730.83" r="7.2" fill="#009af9" fill-rule="evenodd" fill-opacity="1" stroke="none"/>
<circle clip-path="url(#clip832)" cx="2292.13" cy="653.656" r="7.2" fill="#009af9" fill-rule="evenodd" fill-opacity="1" stroke="none"/>
</svg>
